<?xml version="1.0" ?><svg id="filled" viewBox="0 0 64 64" xmlns="http://www.w3.org/2000/svg"><defs><style>.cls-1{fill:#81dee3;}.cls-1,.cls-2,.cls-3,.cls-5{stroke:#000;stroke-linecap:round;stroke-linejoin:round;stroke-width:2px;}.cls-2{fill:#f1c40f;}.cls-3{fill:#fff;}.cls-4{fill:#373737;}.cls-5{fill:none;}</style></defs><title/><path class="cls-1" d="M42.5347,54.2538,32,60,21.4653,54.2538A22,22,0,0,1,10,34.94V14A10,10,0,0,0,20,4H44A10,10,0,0,0,54,14V34.94A22,22,0,0,1,42.5347,54.2538Z"/><circle class="cls-2" cx="32" cy="32" r="12"/><circle class="cls-3" cx="28" cy="35" r="3"/><circle class="cls-3" cx="37" cy="30" r="2"/><circle class="cls-4" cx="36" cy="39" r="1"/><circle class="cls-4" cx="27" cy="28" r="1"/><circle class="cls-4" cx="32" cy="24" r="1"/><line class="cls-5" x1="32" x2="32" y1="16" y2="20"/><line class="cls-5" x1="32" x2="32" y1="44" y2="48"/><line class="cls-5" x1="20.6863" x2="23.5147" y1="20.6863" y2="23.5147"/><line class="cls-5" x1="40.4853" x2="43.3137" y1="40.4853" y2="43.3137"/><line class="cls-5" x1="16" x2="20" y1="32" y2="32"/><line class="cls-5" x1="44" x2="48" y1="32" y2="32"/><line class="cls-5" x1="20.6863" x2="23.5147" y1="43.3137" y2="40.4853"/><line class="cls-5" x1="40.4853" x2="43.3137" y1="23.5147" y2="20.6863"/></svg>